{
  "asset": {
    "version": "2.0",
    "generator": "THREE.GLTFExporter"
  },
  "scenes": [
    {
      "nodes": [
        0
      ]
    }
  ],
  "scene": 0,
  "nodes": [
    {
      "children": [
        5
      ],
      "matrix": [
        0.01,
        0,
        0,
        0,
        0,
        0.01,
        0,
        0,
        0,
        0,
        0.01,
        0,
        0,
        0,
        0,
        1
      ]
    },
    {
      "matrix": [
        1,
        0,
        0,
        0,
        0,
        1,
        0,
        0,
        0,
        0,
        1,
        0,
        99.02430353669911,
        106,
        -45.685832404135674,
        1
      ],
      "name": "Cone",
      "extras": {
        "hasDrag": true,
        "worldPosition0": {
          "x": 99.02430353669911,
          "y": 106,
          "z": -45.685832404135674
        }
      },
      "mesh": 0
    },
    {
      "matrix": [
        0.5883484054145521,
        0.39223227027636803,
        -0.7071067811865475,
        0,
        -0.554700196225229,
        0.8320502943378437,
        0,
        0,
        0.588348405414552,
        0.392232270276368,
        0.7071067811865476,
        0,
        0,
        0,
        0,
        1
      ],
      "name": "Directional Light",
      "extensions": {
        "KHR_lights_punctual": {
          "light": 0
        }
      }
    },
    {
      "matrix": [
        0.21917497496090343,
        -1.772313057424313e-8,
        -0.9756855694079354,
        0,
        -0.5278527508009334,
        0.8410180683728683,
        -0.1185752172347038,
        0,
        0.820569195024268,
        0.5410070319971536,
        0.18433010472208766,
        0,
        922.8134730625795,
        626.1166571650765,
        112.51571249264728,
        1
      ],
      "name": "Personal Camera",
      "camera": 0
    },
    {
      "matrix": [
        1,
        0,
        0,
        0,
        0,
        1,
        0,
        0,
        0,
        0,
        1,
        0,
        0,
        1,
        0,
        1
      ],
      "name": "Default Ambient Light"
    },
    {
      "name": "Scene 1",
      "children": [
        1,
        2,
        3,
        4
      ]
    }
  ],
  "bufferViews": [
    {
      "buffer": 0,
      "byteOffset": 0,
      "byteLength": 12276,
      "target": 34962,
      "byteStride": 12
    },
    {
      "buffer": 0,
      "byteOffset": 12276,
      "byteLength": 12276,
      "target": 34962,
      "byteStride": 12
    },
    {
      "buffer": 0,
      "byteOffset": 24552,
      "byteLength": 8184,
      "target": 34962,
      "byteStride": 8
    },
    {
      "buffer": 0,
      "byteOffset": 32736,
      "byteLength": 11328,
      "target": 34963
    }
  ],
  "buffers": [
    {
      "byteLength": 44064,
      "uri": "data:application/octet-stream;base64,"
    }
  ],
  "accessors": [
    {
      "bufferView": 0,
      "componentType": 5126,
      "count": 1023,
      "max": [
        45.927364349365234,
        50,
        45.927364349365234
      ],
      "min": [
        -45.927364349365234,
        -50,
        -45.927364349365234
      ],
      "type": "VEC3"
    },
    {
      "bufferView": 1,
      "componentType": 5126,
      "count": 1023,
      "max": [
        0.9955402612686157,
        1,
        0.9955402612686157
      ],
      "min": [
        -0.9955402612686157,
        -1,
        -0.9955402612686157
      ],
      "type": "VEC3"
    },
    {
      "bufferView": 2,
      "componentType": 5126,
      "count": 1023,
      "max": [
        1,
        1
      ],
      "min": [
        0,
        0
      ],
      "type": "VEC2"
    },
    {
      "bufferView": 3,
      "componentType": 5123,
      "count": 5664,
      "max": [
        1021
      ],
      "min": [
        0
      ],
      "type": "SCALAR"
    }
  ],
  "meshes": [
    {
      "primitives": [
        {
          "mode": 4,
          "attributes": {
            "POSITION": 0,
            "NORMAL": 1,
            "TEXCOORD_0": 2
          },
          "extras": {
            "parameters": {
              "width": 100,
              "radialSegments": 32,
              "heightSegments": 8,
              "openEnded": false,
              "thetaStart": 0,
              "thetaLength": 360,
              "cornerRadiusTop": 8,
              "cornerRadiusBottom": 8,
              "cornerSegments": 8,
              "depth": 100,
              "height": 100,
              "type": "ConeGeometry"
            },
            "type": "ConeGeometry"
          },
          "indices": 3
        }
      ]
    }
  ],
  "extensions": {
    "KHR_lights_punctual": {
      "lights": [
        {
          "name": "Directional Light",
          "color": [
            1,
            1,
            1
          ],
          "intensity": 0.7,
          "type": "directional"
        }
      ]
    }
  },
  "cameras": [
    {
      "type": "orthographic",
      "orthographic": {
        "xmag": 9.600000000000001,
        "ymag": 4.7250000000000005,
        "zfar": 100000,
        "znear": 0
      },
      "name": "Camera"
    }
  ],
  "extensionsUsed": [
    "KHR_lights_punctual"
  ]
}